# xmcd CD database file
#
# Track frame offsets:
#	150
#	30346
#	74082
#	89694
#	119478
#	144778
#	168393
#	206483
#	227043
#	255486
#	277189
#
# Disc length: 4226 seconds
#
# Revision: 0
# Processed by: cddbd v1.5.2PL0 Copyright (c) Steve Scherf et al.
# Submitted via: CDex 1.51
#
DISCID=9f10800b
DTITLE=Rene Marie - Experiment In Truth
DYEAR=2006
DGENRE=Jazz
TTITLE0=Weekend
TTITLE1=Vertigo
TTITLE2=I Ain't Gonna Let You Break My Heart
TTITLE3=Turn The Page
TTITLE4=Stronger Than You Think
TTITLE5=Rim Shot
TTITLE6=Caravan
TTITLE7=Colorado River Song
TTITLE8=This Is (Not) A Protest Song
TTITLE9=Some Other Time
TTITLE10=O Nina
EXTD=YEAR: 2006
EXTT0=
EXTT1=
EXTT2=
EXTT3=
EXTT4=
EXTT5=
EXTT6=
EXTT7=
EXTT8=
EXTT9=
EXTT10=
PLAYORDER=
